Coordinates
version=1
nRows=22
nColumns=24
inDegrees=yes

Units are S.I. units (second, meters, Newtons, ...)
Angles are in degrees.

endheader
time	pelvis_tilt	pelvis_list	pelvis_rotation	pelvis_tx	pelvis_ty	pelvis_tz	hip_flexion_r	hip_adduction_r	hip_rotation_r	knee_angle_r	ankle_angle_r	subtalar_angle_r	mtp_angle_r	hip_flexion_l	hip_adduction_l	hip_rotation_l	knee_angle_l	ankle_angle_l	subtalar_angle_l	mtp_angle_l	lumbar_extension	lumbar_bending	lumbar_rotation
      4.25000000	     52.49031561	      4.15842185	     -3.98038782	      1.28652197	      1.04412177	     -0.28889445	     24.77753046	     -8.10239924	      5.18239989	    -59.45420147	    -24.01048769	      0.00000000	      0.00000000	     19.16293974	    -10.90513670	     -4.70581146	    -62.67645617	    -14.99449256	      0.00000000	      0.00000000	      0.00000000	      0.00000000	      0.00000000
      4.26000000	     52.48443247	      4.15737459	     -3.98221516	      1.28652156	      1.04411504	     -0.28889905	     24.77460377	     -8.15449868	      5.30857107	    -59.49028971	    -23.99326631	      0.00000000	      0.00000000	     19.16645886	    -10.90468472	     -4.70281509	    -62.66504684	    -14.99553683	      0.00000000	      0.00000000	      0.00000000	      0.00000000	      0.00000000
      4.27000000	     52.47943985	      4.15582162	     -3.98367468	      1.28653084	      1.04411864	     -0.28890664	     24.76902322	     -8.20537738	      5.43779112	    -59.55667554	    -23.96828802	      0.00000000	      0.00000000	     19.16838267	    -10.90465015	     -4.69890210	    -62.65281786	    -14.99678777	      0.00000000	      0.00000000	      0.00000000	      0.00000000	      0.00000000
      4.28000000	     52.47520288	      4.15458484	     -3.98434074	      1.28655547	      1.04413313	     -0.28892609	     24.75929690	     -8.25509337	      5.57177279	    -59.65254697	    -23.93264680	      0.00000000	      0.00000000	     19.16963974	    -10.90507725	     -4.69383154	    -62.64015772	    -14.99865207	      0.00000000	      0.00000000	      0.00000000	      0.00000000	      0.00000000
      4.29000000	     52.47160442	      4.15369861	     -3.98370417	      1.28658432	      1.04414847	     -0.28895341	     24.74431564	     -8.30499625	      5.71117518	    -59.77753620	    -23.88742944	      0.00000000	      0.00000000	     19.17107768	    -10.90592927	     -4.68763628	    -62.62718303	    -15.00136825	      0.00000000	      0.00000000	      0.00000000	      0.00000000	      0.00000000
      4.30000000	     52.46913664	      4.15261512	     -3.98153350	      1.28659476	      1.04414899	     -0.28896763	     24.72464006	     -8.35671816	      5.85403024	    -59.93159627	    -23.83869458	      0.00000000	      0.00000000	     19.17261427	    -10.90659639	     -4.68089864	    -62.61407997	    -15.00485850	      0.00000000	      0.00000000	      0.00000000	      0.00000000	      0.00000000
      4.31000000	     52.46947517	      4.15142202	     -3.97810704	      1.28658029	      1.04413330	     -0.28895964	     24.70363585	     -8.41062163	      5.99482881	    -60.11450990	    -23.79685962	      0.00000000	      0.00000000	     19.17266667	    -10.90570279	     -4.67476526	    -62.60154105	    -15.00865993	      0.00000000	      0.00000000	      0.00000000	      0.00000000	      0.00000000
      4.32000000	     52.47506631	      4.15159219	     -3.97428162	      1.28656620	      1.04412850	     -0.28896164	     24.68668253	     -8.46552209	      6.12590061	    -60.32546130	    -23.77408967	      0.00000000	      0.00000000	     19.16886454	    -10.90178637	     -4.67042081	    -62.59074889	    -15.01195351	      0.00000000	      0.00000000	      0.00000000	      0.00000000	      0.00000000
      4.33000000	     52.48661691	      4.15424691	     -3.97123507	      1.28657180	      1.04415220	     -0.28900132	     24.67757547	     -8.52092714	      6.24142530	    -60.56322322	    -23.78028427	      0.00000000	      0.00000000	     19.15988335	    -10.89437558	     -4.66834184	    -62.58283740	    -15.01367223	      0.00000000	      0.00000000	      0.00000000	      0.00000000	      0.00000000
      4.34000000	     52.50153730	      4.15844638	     -3.96979749	      1.28658066	      1.04418109	     -0.28905149	     24.67595529	     -8.57849583	      6.34067172	    -60.82612011	    -23.81956587	      0.00000000	      0.00000000	     19.14690364	    -10.88430899	     -4.66802225	    -62.57835151	    -15.01266678	      0.00000000	      0.00000000	      0.00000000	      0.00000000	      0.00000000
      4.35000000	     52.51604615	      4.16290727	     -3.96994053	      1.28657717	      1.04419064	     -0.28908050	     24.67917328	     -8.63966732	      6.42699918	    -61.11123195	    -23.88919073	      0.00000000	      0.00000000	     19.13335934	    -10.87296337	     -4.66840495	    -62.57720050	    -15.00791413	      0.00000000	      0.00000000	      0.00000000	      0.00000000	      0.00000000
      4.36000000	     52.52737338	      4.16782151	     -3.97102655	      1.28656799	      1.04418171	     -0.28909796	     24.68540121	     -8.70337785	      6.50458526	    -61.41435412	    -23.98097161	      0.00000000	      0.00000000	     19.12315672	    -10.86125524	     -4.66854945	    -62.57903076	    -14.99874133	      0.00000000	      0.00000000	      0.00000000	      0.00000000	      0.00000000
      4.37000000	     52.53406702	      4.17386773	     -3.97243384	      1.28656134	      1.04416310	     -0.28912289	     24.69489002	     -8.76706323	      6.57636417	    -61.73120999	    -24.08393642	      0.00000000	      0.00000000	     19.11892114	    -10.84931582	     -4.66798164	    -62.58350768	    -14.98500339	      0.00000000	      0.00000000	      0.00000000	      0.00000000	      0.00000000
      4.38000000	     52.53561204	      4.18092723	     -3.97391338	      1.28655417	      1.04414112	     -0.28915518	     24.70931005	     -8.82865825	      6.64370013	    -62.05900637	    -24.18710581	      0.00000000	      0.00000000	     19.12140852	    -10.83687590	     -4.66664663	    -62.59031492	    -14.96713811	      0.00000000	      0.00000000	      0.00000000	      0.00000000	      0.00000000
      4.39000000	     52.53185386	      4.18838010	     -3.97545445	      1.28653826	      1.04411980	     -0.28918443	     24.72998536	     -8.88735241	      6.70696337	    -62.39743034	    -24.28166665	      0.00000000	      0.00000000	     19.12985006	    -10.82378788	     -4.66472244	    -62.59917099	    -14.94605750	      0.00000000	      0.00000000	      0.00000000	      0.00000000	      0.00000000
      4.40000000	     52.52297795	      4.19607064	     -3.97688173	      1.28651790	      1.04410422	     -0.28920481	     24.75675513	     -8.94309225	      6.76620925	    -62.74811538	    -24.36207465	      0.00000000	      0.00000000	     19.14259311	    -10.81021978	     -4.66249340	    -62.60998768	    -14.92291421	      0.00000000	      0.00000000	      0.00000000	      0.00000000	      0.00000000
      4.41000000	     52.51018783	      4.20449086	     -3.97783260	      1.28651149	      1.04409837	     -0.28921825	     24.78828857	     -8.99586228	      6.82139609	    -63.11261942	    -24.42611177	      0.00000000	      0.00000000	     19.15770660	    -10.79652227	     -4.66029096	    -62.62290793	    -14.89884415	      0.00000000	      0.00000000	      0.00000000	      0.00000000	      0.00000000
      4.42000000	     52.49597987	      4.21397426	     -3.97822792	      1.28652714	      1.04409670	     -0.28922864	     24.82295154	     -9.04550821	      6.87217036	    -63.49046966	    -24.47439381	      0.00000000	      0.00000000	     19.17335758	    -10.78306518	     -4.65842521	    -62.63807047	    -14.87478234	      0.00000000	      0.00000000	      0.00000000	      0.00000000	      0.00000000
      4.43000000	     52.48344122	      4.22408136	     -3.97854472	      1.28655351	      1.04408781	     -0.28923741	     24.85923277	     -9.09179363	      6.91760593	    -63.87870249	    -24.50973594	      0.00000000	      0.00000000	     19.18789200	    -10.77020624	     -4.65710666	    -62.65529772	    -14.85138477	      0.00000000	      0.00000000	      0.00000000	      0.00000000	      0.00000000
      4.44000000	     52.47500098	      4.23383630	     -3.97958826	      1.28657533	      1.04406762	     -0.28924533	     24.89556470	     -9.13434072	      6.95620568	    -64.27290177	    -24.53638580	      0.00000000	      0.00000000	     19.19975722	    -10.75832133	     -4.65641314	    -62.67397888	    -14.82904200	      0.00000000	      0.00000000	      0.00000000	      0.00000000	      0.00000000
      4.45000000	     52.47152554	      4.24220418	     -3.98200551	      1.28658354	      1.04404231	     -0.28925229	     24.93008868	     -9.17273133	      6.98637439	    -64.66864904	    -24.55903937	      0.00000000	      0.00000000	     19.20747330	    -10.74783960	     -4.65628208	    -62.69320617	    -14.80795321	      0.00000000	      0.00000000	      0.00000000	      0.00000000	      0.00000000
      4.46000000	     52.47254013	      4.24850848	     -3.98585159	      1.28658029	      1.04402054	     -0.28925593	     24.96093598	     -9.20667937	      7.00713385	    -65.06231238	    -24.58180910	      0.00000000	      0.00000000	     19.20985283	    -10.73927155	     -4.65649547	    -62.71198481	    -14.78820647	      0.00000000	      0.00000000	      0.00000000	      0.00000000	      0.00000000
